
<svg xmlns="http://www.w3.org/2000/svg" version="1.1" xmlns:xlink="http://www.w3.org/1999/xlink" xmlns:svgjs="http://svgjs.com/svgjs" width="1440" height="960" preserveAspectRatio="none" viewBox="0 0 1440 960">
    <g mask="url(&quot;#SvgjsMask1006&quot;)" fill="none">
        <path d="M52.6 -1.46L103.7 28.04L103.7 87.04L52.6 116.54L1.5 87.04L1.5 28.04zM103.7 87.04L154.79 116.54L154.79 175.54L103.7 205.04L52.6 175.54L52.6 116.54zM205.89 264.04L256.99 293.54L256.99 352.54L205.89 382.04L154.79 352.54L154.79 293.54zM154.79 352.54L205.89 382.04L205.89 441.04L154.79 470.54L103.7 441.04L103.7 382.04zM256.99 352.54L308.08 382.04L308.08 441.04L256.99 470.54L205.89 441.04L205.89 382.04zM359.18 175.54L410.28 205.04L410.28 264.04L359.18 293.54L308.08 264.04L308.08 205.04zM410.28 264.04L461.38 293.54L461.38 352.54L410.28 382.04L359.18 352.54L359.18 293.54zM410.28 618.04L461.38 647.54L461.38 706.54L410.28 736.04L359.18 706.54L359.18 647.54zM461.38 175.54L512.47 205.04L512.47 264.04L461.38 293.54L410.28 264.04L410.28 205.04zM512.47 264.04L563.57 293.54L563.57 352.54L512.47 382.04L461.38 352.54L461.38 293.54zM563.57 706.54L614.67 736.04L614.67 795.04L563.57 824.54L512.47 795.04L512.47 736.04zM614.67 972.04L665.76 1001.54L665.76 1060.54L614.67 1090.04L563.57 1060.54L563.57 1001.54zM716.86 441.04L767.96 470.54L767.96 529.54L716.86 559.04L665.76 529.54L665.76 470.54zM665.76 529.54L716.86 559.04L716.86 618.04L665.76 647.54L614.67 618.04L614.67 559.04zM716.86 795.04L767.96 824.54L767.96 883.54L716.86 913.04L665.76 883.54L665.76 824.54zM819.05 441.04L870.15 470.54L870.15 529.54L819.05 559.04L767.96 529.54L767.96 470.54zM767.96 883.54L819.05 913.04L819.05 972.04L767.96 1001.54L716.86 972.04L716.86 913.04zM870.15 -1.46L921.25 28.04L921.25 87.04L870.15 116.54L819.05 87.04L819.05 28.04zM921.25 441.04L972.35 470.54L972.35 529.54L921.25 559.04L870.15 529.54L870.15 470.54zM870.15 529.54L921.25 559.04L921.25 618.04L870.15 647.54L819.05 618.04L819.05 559.04zM1125.64 264.04L1176.73 293.54L1176.73 352.54L1125.64 382.04L1074.54 352.54L1074.54 293.54zM1125.64 441.04L1176.73 470.54L1176.73 529.54L1125.64 559.04L1074.54 529.54L1074.54 470.54zM1074.54 706.54L1125.64 736.04L1125.64 795.04L1074.54 824.54L1023.44 795.04L1023.44 736.04zM1330.02 264.04L1381.12 293.54L1381.12 352.54L1330.02 382.04L1278.93 352.54L1278.93 293.54zM1330.02 441.04L1381.12 470.54L1381.12 529.54L1330.02 559.04L1278.93 529.54L1278.93 470.54zM1330.02 972.04L1381.12 1001.54L1381.12 1060.54L1330.02 1090.04L1278.93 1060.54L1278.93 1001.54zM1381.12 352.54L1432.22 382.04L1432.22 441.04L1381.12 470.54L1330.02 441.04L1330.02 382.04zM1381.12 883.54L1432.22 913.04L1432.22 972.04L1381.12 1001.54L1330.02 972.04L1330.02 913.04zM1534.41 264.04L1585.51 293.54L1585.51 352.54L1534.41 382.04L1483.31 352.54L1483.31 293.54zM1483.31 529.54L1534.41 559.04L1534.41 618.04L1483.31 647.54L1432.22 618.04L1432.22 559.04zM1534.41 795.04L1585.51 824.54L1585.51 883.54L1534.41 913.04L1483.31 883.54L1483.31 824.54zM1483.31 883.54L1534.41 913.04L1534.41 972.04L1483.31 1001.54L1432.22 972.04L1432.22 913.04zM1534.41 972.04L1585.51 1001.54L1585.51 1060.54L1534.41 1090.04L1483.31 1060.54L1483.31 1001.54z" stroke="rgba(229, 229, 229, 1)" stroke-width="1"></path>
    </g>
    <defs>
        <mask id="SvgjsMask1006">
            <rect width="1440" height="960" fill="#ffffff"></rect>
        </mask>
    </defs>
</svg>